<?xml version="1.0" standalone="no"?>
<!DOCTYPE svg PUBLIC "-//W3C//DTD SVG 20010904//EN"
 "http://www.w3.org/TR/2001/REC-SVG-20010904/DTD/svg10.dtd">
<svg version="1.0" xmlns="http://www.w3.org/2000/svg"
 width="512.000000pt" height="512.000000pt" viewBox="0 0 512.000000 512.000000"
 preserveAspectRatio="xMidYMid meet">
<metadata>
Created by potrace 1.14, written by Peter Selinger 2001-2017
</metadata>
<g transform="translate(0.000000,512.000000) scale(0.100000,-0.100000)"
fill="#000000" stroke="none">
<path d="M3258 4315 c-2 -1 -29 -5 -61 -9 -32 -3 -62 -8 -65 -10 -4 -2 -29 -7
-57 -10 -27 -4 -66 -11 -85 -16 -19 -5 -55 -11 -80 -14 -25 -3 -56 -8 -70 -11
-24 -5 -78 -15 -110 -20 -8 -2 -53 -10 -100 -18 -47 -9 -98 -18 -115 -20 -28
-4 -115 -20 -175 -32 -13 -3 -42 -7 -65 -11 -22 -3 -85 -14 -140 -24 -55 -10
-120 -22 -145 -25 -25 -4 -52 -9 -60 -10 -8 -2 -53 -10 -100 -19 -144 -26
-139 -25 -325 -57 -256 -45 -362 -139 -434 -385 -18 -60 -36 -120 -41 -134 -5
-14 -32 -106 -61 -205 -29 -99 -55 -183 -58 -187 -4 -4 -24 -10 -46 -14 -22
-3 -44 -7 -49 -7 -9 -2 -12 10 -36 126 -14 71 -57 120 -117 136 -51 14 -65 11
-220 -50 -152 -60 -167 -69 -194 -126 -21 -44 -22 -50 -9 -127 15 -96 29 -127
72 -160 50 -37 92 -40 215 -17 59 11 126 23 148 27 22 3 57 9 78 14 20 4 37 6
37 3 0 -3 -29 -47 -64 -98 -99 -143 -124 -204 -130 -314 -3 -58 4 -118 29
-253 15 -79 48 -269 75 -423 21 -123 58 -329 64 -360 2 -11 7 -39 11 -62 8
-53 39 -93 70 -93 28 0 28 1 55 -155 12 -66 25 -124 31 -130 5 -5 9 -17 9 -26
0 -19 65 -81 110 -104 35 -18 111 -23 180 -12 307 50 372 72 424 140 50 66 59
115 40 225 -7 42 -15 95 -18 116 -4 21 -9 50 -12 62 -5 19 -2 24 12 25 11 0
26 2 35 4 9 1 71 13 138 24 148 27 141 24 224 85 37 28 77 51 89 53 13 2 59
10 103 18 44 7 94 16 110 19 25 4 82 14 235 42 14 2 52 8 85 14 33 5 71 12 85
15 14 3 39 7 55 10 17 3 118 21 225 40 107 19 213 37 235 40 22 3 45 8 52 10
7 2 50 -7 95 -21 79 -24 108 -25 188 -10 56 11 158 28 198 33 31 4 42 1 43 -9
1 -15 6 -49 15 -98 4 -19 8 -44 10 -55 19 -136 61 -202 159 -246 56 -25 113
-21 363 27 173 33 230 70 268 176 19 54 18 80 -10 226 l-22 123 27 16 c39 23
42 52 19 183 -11 63 -24 142 -30 175 -9 57 -13 76 -25 135 -2 14 -7 39 -9 55
-6 38 -35 203 -40 230 -2 11 -16 90 -31 175 -14 85 -36 182 -47 214 -38 116
-114 203 -260 302 -37 24 -69 48 -72 53 -3 4 43 15 102 24 275 45 282 47 327
92 53 52 60 88 40 191 -17 90 -35 120 -92 151 -36 20 -55 23 -199 25 -178 3
-201 -3 -249 -66 -31 -41 -36 -83 -19 -178 7 -40 9 -76 6 -80 -4 -4 -28 -10
-53 -13 l-46 -6 -201 269 c-110 148 -220 286 -244 306 -45 39 -104 69 -167 85
-36 10 -127 21 -133 16z"/>
<path d="M159 2239 l-37 -70 160 -80 c88 -44 161 -79 162 -77 16 24 69 139 65
142 -5 4 -307 156 -311 156 -2 0 -19 -32 -39 -71z"/>
<path d="M162 1926 c-17 -34 -32 -67 -32 -72 0 -9 310 -168 314 -162 13 17 68
139 65 142 -5 4 -307 156 -312 156 -1 0 -17 -29 -35 -64z"/>
<path d="M162 1605 c-18 -35 -32 -68 -32 -72 0 -8 310 -167 314 -161 13 17 68
139 65 142 -5 5 -308 156 -312 156 -2 0 -18 -29 -35 -65z"/>
<path d="M210 1273 c-8 -3 -23 -15 -32 -27 -16 -19 -18 -62 -18 -516 0 -272 3
-505 6 -518 15 -55 -133 -52 2394 -52 2491 0 2376 -2 2394 45 3 9 6 239 6 511
0 534 -1 544 -52 558 -13 3 -661 6 -1440 6 -1397 0 -1418 0 -1438 -20 -10 -10
-87 -120 -169 -243 l-149 -224 -59 -11 c-32 -6 -74 -14 -93 -17 -19 -3 -96
-17 -170 -31 -181 -33 -278 -51 -320 -58 -43 -7 -77 -14 -111 -21 -20 -5 -28
-1 -34 12 -4 10 -43 115 -87 233 -130 352 -130 350 -160 366 -21 11 -75 14
-240 13 -117 0 -220 -3 -228 -6z"/>
</g>
</svg>
